<svg width="40" height="25" viewBox="0 0 40 36" fill="none" xmlns="http://www.w3.org/2000/svg">
<path  d="M36.0313 31.9687L36.0313 4.03125L20 4.03125L20 -2.09815e-06L36.0313 -6.9665e-07C37.0938 -6.03764e-07 38.0313 0.406249 38.8438 1.21875C39.5938 2.03125 39.9688 2.96875 39.9688 4.03125L39.9688 31.9687C39.9688 33.0312 39.5938 33.9687 38.8438 34.7812C38.0313 35.5937 37.0938 36 36.0313 36L20 36L20 31.9687L36.0313 31.9687ZM9.96875 28.0312L0.0312521 18L9.96875 7.96875L12.7813 10.875L7.625 16.0312L27.9688 16.0312L27.9688 19.9687L7.625 19.9687L12.7813 25.2187L9.96875 28.0312Z" fill="black"/>
</svg>
