<svg width="43" height="40" viewBox="0 0 43 40" fill="none" xmlns="http://www.w3.org/2000/svg">
<g filter="url(#filter0_d_219_699)">
<path d="M38.0234 16L34.3672 20.2188L34.8594 25.7031L29.4453 26.9688L26.6328 31.75L21.5 29.5703L16.3672 31.75L13.5547 26.9688L8.14062 25.7031L8.63281 20.2188L4.97656 16L8.63281 11.7812L8.14062 6.22656L13.5547 5.03125L16.3672 0.25L21.5 2.42969L26.6328 0.25L29.4453 5.03125L34.8594 6.29688L34.3672 11.7812L38.0234 16ZM18.6172 23.1016L29.6562 12.0625L27.4062 9.8125L18.6172 18.6719L15.1719 15.1562L12.9219 17.3359L18.6172 23.1016Z" fill="black"/>
</g>
<defs>
<filter id="filter0_d_219_699" x="0.976562" y="0.25" width="41.0469" height="39.5" filterUnits="userSpaceOnUse" color-interpolation-filters="sRGB">
<feFlood flood-opacity="0" result="BackgroundImageFix"/>
<feColorMatrix in="SourceAlpha" type="matrix" values="0 0 0 0 0 0 0 0 0 0 0 0 0 0 0 0 0 0 127 0" result="hardAlpha"/>
<feOffset dy="4"/>
<feGaussianBlur stdDeviation="2"/>
<feComposite in2="hardAlpha" operator="out"/>
<feColorMatrix type="matrix" values="0 0 0 0 0 0 0 0 0 0 0 0 0 0 0 0 0 0 0.25 0"/>
<feBlend mode="normal" in2="BackgroundImageFix" result="effect1_dropShadow_219_699"/>
<feBlend mode="normal" in="SourceGraphic" in2="effect1_dropShadow_219_699" result="shape"/>
</filter>
</defs>
</svg>
