<svg width="25" height="28" viewBox="0 0 25 28" fill="none" xmlns="http://www.w3.org/2000/svg">
<path d="M21.8152 24.5507V9.92566H3.19019V24.5507H21.8152ZM17.8152 0.550659H20.5027V3.23816H21.8152C22.5235 3.23816 23.1485 3.50899 23.6902 4.05066C24.2319 4.59233 24.5027 5.21733 24.5027 5.92566V24.5507C24.5027 25.259 24.2319 25.884 23.6902 26.4257C23.1485 26.9673 22.5235 27.2382 21.8152 27.2382H3.19019C2.44019 27.2382 1.79435 26.9882 1.25269 26.4882C0.752686 25.9465 0.502686 25.3007 0.502686 24.5507V5.92566C0.502686 5.21733 0.752686 4.59233 1.25269 4.05066C1.79435 3.50899 2.44019 3.23816 3.19019 3.23816H4.50269V0.550659H7.19019V3.23816H17.8152V0.550659ZM19.1902 15.2382V21.9257H12.5027V15.2382H19.1902Z" fill="black"/>
</svg>
