<svg width="26" height="25" viewBox="0 0 26 25" fill="none" xmlns="http://www.w3.org/2000/svg">
<path d="M5.04346 16.8213C7.80908 15.6963 10.4575 15.1338 12.9888 15.1338C15.52 15.1338 18.145 15.6963 20.8638 16.8213C23.6294 17.8994 25.0122 19.3291 25.0122 21.1104V24.1338H0.965332V21.1104C0.965332 19.3291 2.32471 17.8994 5.04346 16.8213ZM17.2075 10.3525C16.0356 11.5244 14.6294 12.1104 12.9888 12.1104C11.3481 12.1104 9.94189 11.5244 8.77002 10.3525C7.59814 9.18066 7.01221 7.77441 7.01221 6.13379C7.01221 4.49316 7.59814 3.08691 8.77002 1.91504C9.94189 0.696289 11.3481 0.0869141 12.9888 0.0869141C14.6294 0.0869141 16.0356 0.696289 17.2075 1.91504C18.3794 3.08691 18.9653 4.49316 18.9653 6.13379C18.9653 7.77441 18.3794 9.18066 17.2075 10.3525Z" fill="black"/>
</svg>
