<svg width="16" height="10" viewBox="0 0 16 10" fill="none" xmlns="http://www.w3.org/2000/svg">
<path d="M6.59375 3.59375C6.98958 3.19792 7.45833 3 8 3C8.54167 3 9.01042 3.19792 9.40625 3.59375C9.80208 3.98958 10 4.45833 10 5C10 5.54167 9.80208 6.01042 9.40625 6.40625C9.01042 6.80208 8.54167 7 8 7C7.45833 7 6.98958 6.80208 6.59375 6.40625C6.19792 6.01042 6 5.54167 6 5C6 4.45833 6.19792 3.98958 6.59375 3.59375ZM5.625 7.375C6.29167 8.02083 7.08333 8.34375 8 8.34375C8.91667 8.34375 9.69792 8.02083 10.3438 7.375C11.0104 6.70833 11.3438 5.91667 11.3438 5C11.3438 4.08333 11.0104 3.30208 10.3438 2.65625C9.69792 1.98958 8.91667 1.65625 8 1.65625C7.08333 1.65625 6.29167 1.98958 5.625 2.65625C4.97917 3.30208 4.65625 4.08333 4.65625 5C4.65625 5.91667 4.97917 6.70833 5.625 7.375ZM3.53125 1.375C4.86458 0.458333 6.35417 0 8 0C9.64583 0 11.1354 0.458333 12.4688 1.375C13.8021 2.29167 14.7604 3.5 15.3438 5C14.7604 6.5 13.8021 7.70833 12.4688 8.625C11.1354 9.54167 9.64583 10 8 10C6.35417 10 4.86458 9.54167 3.53125 8.625C2.19792 7.70833 1.23958 6.5 0.65625 5C1.23958 3.5 2.19792 2.29167 3.53125 1.375Z" fill="#000099"/>
</svg>
